<?xml version="1.0" encoding="utf-8"?>
<!-- Generator: Adobe Illustrator 15.0.2, SVG Export Plug-In  -->
<!DOCTYPE svg PUBLIC "-//W3C//DTD SVG 1.1//EN" "http://www.w3.org/Graphics/SVG/1.1/DTD/svg11.dtd" [
	<!ENTITY ns_flows "http://ns.adobe.com/Flows/1.0/">
]>
<svg version="1.1"
	 xmlns="http://www.w3.org/2000/svg" xmlns:xlink="http://www.w3.org/1999/xlink" xmlns:a="http://ns.adobe.com/AdobeSVGViewerExtensions/3.0/"
	 x="0px" y="0px" width="125px" height="125px" viewBox="-0.674 -0.561 125 125" enable-background="new -0.674 -0.561 125 125"
	 xml:space="preserve">
<defs>
</defs>
<circle fill="none" stroke="#FF3232" stroke-width="4" stroke-miterlimit="10" cx="61.995" cy="61.995" r="59.995"/>
<path id="Twitter_1_" display="none" fill="#FF3232" d="M105.994,37.132c-3.068,1.397-6.371,2.341-9.835,2.764
	c3.538-2.171,6.252-5.613,7.531-9.714c-3.313,2.01-6.975,3.472-10.885,4.256c-3.115-3.412-7.57-5.542-12.501-5.542
	c-9.452,0-17.122,7.865-17.122,17.564c0,1.376,0.146,2.713,0.439,4c-14.236-0.734-26.854-7.72-35.309-18.358
	c-1.476,2.603-2.317,5.624-2.317,8.84c0,6.091,3.023,11.468,7.62,14.619c-2.803-0.084-5.449-0.884-7.762-2.19v0.215
	c0,8.513,5.905,15.614,13.747,17.224c-1.437,0.41-2.951,0.618-4.515,0.618c-1.103,0-2.18-0.106-3.224-0.313
	c2.181,6.975,8.503,12.057,16.001,12.192c-5.861,4.712-13.251,7.523-21.274,7.523c-1.381,0-2.749-0.081-4.087-0.242
	c7.581,4.975,16.589,7.885,26.258,7.885c31.51,0,48.739-26.761,48.739-49.974c0-0.764-0.017-1.528-0.045-2.276
	C100.801,43.745,103.704,40.655,105.994,37.132"/>
<path id="LinkedIn_1_" display="none" fill="#FF3232" d="M97.604,94.465H81.789V71.597c0-5.984-2.474-10.072-7.914-10.072
	c-4.16,0-6.475,2.759-7.552,5.415c-0.402,0.955-0.339,2.283-0.339,3.611v23.914H50.315c0,0,0.202-40.509,0-44.191h15.669v6.936
	c0.924-3.033,5.93-7.361,13.919-7.361c9.911,0,17.701,6.357,17.701,20.043V94.465L97.604,94.465z M34.471,44.747H34.37
	c-5.049,0-8.322-3.378-8.322-7.661c0-4.365,3.37-7.672,8.52-7.672c5.146,0,8.309,3.299,8.41,7.661
	C42.978,41.355,39.713,44.747,34.471,44.747L34.471,44.747L34.471,44.747z M27.853,50.274H41.8v44.191H27.853V50.274L27.853,50.274z
	"/>
<path id="Github_1_" display="none" fill="#FF3232" d="M61.823,16.439c-25.659,0-46.466,20.886-46.466,46.656
	c0,20.606,13.313,38.094,31.782,44.265c2.323,0.428,3.171-1.013,3.171-2.25c0-1.107-0.042-4.04-0.063-7.933
	c-12.928,2.821-15.655-6.254-15.655-6.254c-2.112-5.388-5.158-6.823-5.158-6.823c-4.22-2.895,0.32-2.836,0.32-2.836
	c4.661,0.328,7.115,4.808,7.115,4.808c4.148,7.13,10.877,5.068,13.526,3.874c0.42-3.015,1.623-5.071,2.95-6.235
	c-10.318-1.179-21.166-5.179-21.166-23.057c0-5.094,1.81-9.257,4.784-12.52c-0.479-1.181-2.074-5.922,0.453-12.345
	c0,0,3.904-1.254,12.778,4.782c3.709-1.035,7.683-1.551,11.635-1.572c3.946,0.021,7.923,0.537,11.634,1.572
	c8.871-6.036,12.767-4.782,12.767-4.782c2.533,6.423,0.94,11.165,0.461,12.345c2.98,3.263,4.776,7.426,4.776,12.52
	c0,17.923-10.864,21.865-21.216,23.02c1.669,1.442,3.154,4.286,3.154,8.64c0,6.239-0.057,11.268-0.057,12.797
	c0,1.248,0.836,2.7,3.193,2.244c18.451-6.183,31.753-23.654,31.753-44.259C108.295,37.325,87.488,16.439,61.823,16.439"/>
<path id="last.fm_1_" display="none" fill="#FF3232" d="M90.066,89.709c-9.734-0.04-14.921-4.833-18.526-13.277l-1.026-2.306
	l-8.891-20.397c-2.944-7.221-10.26-12.099-18.511-12.099c-11.164,0-20.222,9.12-20.222,20.368c0,11.248,9.058,20.367,20.222,20.367
	c7.788,0,14.563-4.433,17.939-10.935l3.599,8.346C59.547,86.042,51.79,90.03,43.111,90.03c-15.375,0-27.842-12.543-27.842-28.033
	c0-15.479,12.466-28.037,27.842-28.037c11.606,0,20.975,6.239,25.735,17.296c0.365,0.858,5.036,11.861,9.112,21.227
	c2.524,5.795,4.675,9.639,11.658,9.876c6.859,0.238,11.567-3.966,11.567-9.28c0-5.191-3.59-6.439-9.65-8.469
	c-10.891-3.613-16.52-7.243-16.52-15.942c0-8.485,5.734-14.142,15.052-14.142c6.07,0,10.448,2.718,13.482,8.138l-5.954,3.062
	c-2.243-3.162-4.715-4.41-7.862-4.41c-4.373,0-7.49,3.062-7.49,7.135c0,5.781,5.132,6.655,12.319,9.029
	c9.666,3.17,14.16,6.792,14.16,15.835C108.721,82.81,100.63,89.725,90.066,89.709z"/>
<path fill="#FF3232" d="M105.787,83.919c0,1.928-0.542,3.714-1.41,5.287L76.616,58.146l27.46-24.024
	c1.068,1.695,1.711,3.687,1.711,5.838V83.919L105.787,83.919z M61.826,63.786l38.209-33.432c-1.567-0.858-3.333-1.385-5.238-1.385
	H28.855c-1.907,0-3.674,0.526-5.234,1.385L61.826,63.786z M72.479,61.763l-8.845,7.744c-0.518,0.45-1.161,0.676-1.808,0.676
	s-1.292-0.226-1.808-0.676l-8.846-7.744L23.06,93.22c1.685,1.057,3.66,1.689,5.796,1.689h65.941c2.135,0,4.111-0.633,5.796-1.689
	L72.479,61.763z M19.578,34.121c-1.068,1.695-1.712,3.687-1.712,5.838v43.96c0,1.928,0.54,3.714,1.412,5.287L47.034,58.14
	L19.578,34.121z"/>
</svg>
