<?xml version="1.0" encoding="utf-8"?>
<!-- Generator: Adobe Illustrator 15.0.2, SVG Export Plug-In  -->
<!DOCTYPE svg PUBLIC "-//W3C//DTD SVG 1.1//EN" "http://www.w3.org/Graphics/SVG/1.1/DTD/svg11.dtd" [
	<!ENTITY ns_flows "http://ns.adobe.com/Flows/1.0/">
]>
<svg version="1.1"
	 xmlns="http://www.w3.org/2000/svg" xmlns:xlink="http://www.w3.org/1999/xlink" xmlns:a="http://ns.adobe.com/AdobeSVGViewerExtensions/3.0/"
	 x="0px" y="0px" width="125px" height="125px" viewBox="-0.674 -0.561 125 125" enable-background="new -0.674 -0.561 125 125"
	 xml:space="preserve">
<defs>
</defs>
<circle fill="none" stroke="#FF3232" stroke-width="4" stroke-miterlimit="10" cx="61.995" cy="61.995" r="59.995"/>
<path id="Twitter_1_" display="none" fill="#FF3232" d="M102.614,39.283c-2.82,1.284-5.855,2.152-9.039,2.54
	c3.252-1.995,5.746-5.159,6.922-8.927c-3.045,1.847-6.41,3.191-10.004,3.911c-2.863-3.135-6.957-5.094-11.488-5.094
	c-8.688,0-15.736,7.228-15.736,16.142c0,1.265,0.135,2.494,0.404,3.676c-13.083-0.674-24.68-7.095-32.45-16.872
	c-1.356,2.393-2.13,5.168-2.13,8.124c0,5.598,2.779,10.54,7.003,13.435c-2.576-0.078-5.008-0.813-7.133-2.013v0.198
	c0,7.823,5.427,14.35,12.633,15.828c-1.32,0.377-2.712,0.568-4.149,0.568c-1.013,0-2.003-0.098-2.963-0.287
	c2.004,6.41,7.814,11.08,14.705,11.205c-5.387,4.33-12.178,6.914-19.552,6.914c-1.27,0-2.526-0.074-3.756-0.223
	c6.967,4.572,15.246,7.246,24.132,7.246c28.958,0,44.792-24.594,44.792-45.926c0-0.702-0.016-1.404-0.041-2.092
	C97.841,45.36,100.509,42.521,102.614,39.283"/>
<path id="LinkedIn_1_" display="none" fill="#FF3232" d="M96.984,90.901H81.443V68.429c0-5.882-2.432-9.897-7.776-9.897
	c-4.089,0-6.363,2.711-7.421,5.32c-0.396,0.939-0.334,2.244-0.334,3.549v23.5H50.515c0,0,0.198-39.807,0-43.425h15.397v6.815
	c0.908-2.98,5.827-7.233,13.679-7.233c9.74,0,17.394,6.247,17.394,19.696V90.901L96.984,90.901z M34.945,42.044h-0.099
	c-4.961,0-8.178-3.319-8.178-7.528c0-4.29,3.312-7.54,8.373-7.54c5.056,0,8.165,3.242,8.264,7.528
	C43.304,38.712,40.096,42.044,34.945,42.044L34.945,42.044L34.945,42.044z M28.441,47.476h13.705v43.425H28.441V47.476
	L28.441,47.476z"/>
<path id="Github_1_" fill="#FF3232" d="M61.823,16.439c-25.659,0-46.466,20.886-46.466,46.656c0,20.606,13.313,38.094,31.782,44.265
	c2.323,0.428,3.171-1.013,3.171-2.25c0-1.107-0.042-4.04-0.063-7.933c-12.928,2.821-15.655-6.254-15.655-6.254
	c-2.112-5.388-5.158-6.823-5.158-6.823c-4.22-2.895,0.32-2.836,0.32-2.836c4.661,0.328,7.115,4.808,7.115,4.808
	c4.148,7.13,10.877,5.068,13.526,3.874c0.42-3.015,1.623-5.071,2.95-6.235c-10.318-1.179-21.166-5.179-21.166-23.057
	c0-5.094,1.81-9.257,4.784-12.52c-0.479-1.181-2.074-5.922,0.453-12.345c0,0,3.904-1.254,12.778,4.782
	c3.709-1.035,7.683-1.551,11.635-1.572c3.946,0.021,7.923,0.537,11.634,1.572c8.871-6.036,12.767-4.782,12.767-4.782
	c2.533,6.423,0.94,11.165,0.461,12.345c2.98,3.263,4.776,7.426,4.776,12.52c0,17.923-10.864,21.865-21.216,23.02
	c1.669,1.442,3.154,4.286,3.154,8.64c0,6.239-0.057,11.268-0.057,12.797c0,1.248,0.836,2.7,3.193,2.244
	c18.451-6.183,31.753-23.654,31.753-44.259C108.295,37.325,87.488,16.439,61.823,16.439"/>
</svg>
